<svg width="140" height="48" viewBox="0 0 140 48" fill="none" xmlns="http://www.w3.org/2000/svg">
<path d="M0.527832 0.580505H10.3781C11.8126 0.580505 13.0558 0.73591 14.1078 1.04672C15.1598 1.35753 16.0324 1.8078 16.7258 2.39755C17.4191 2.97932 17.9332 3.69259 18.2679 4.53735C18.6106 5.38211 18.7819 6.33447 18.7819 7.39441C18.7819 8.39059 18.6146 9.31107 18.2798 10.1558C17.9451 11.0006 17.4311 11.7338 16.7377 12.3554C16.0524 12.9691 15.1837 13.4512 14.1317 13.8019C13.0798 14.1446 11.8365 14.3159 10.402 14.3159L4.31732 14.3039V19.2649H0.527832V0.580505ZM10.4737 11.0285C11.191 11.0285 11.8166 10.9448 12.3505 10.7775C12.8925 10.6021 13.3427 10.3591 13.7014 10.0482C14.068 9.72946 14.3389 9.34693 14.5143 8.90064C14.6976 8.44638 14.7892 7.9443 14.7892 7.39441C14.7892 6.28665 14.4266 5.42595 13.7014 4.8123C12.9841 4.19068 11.9082 3.87987 10.4737 3.87987H4.31732V11.0285H10.4737Z" fill="white"/>
<path d="M28.3453 0.580505H32.1348V10.8731C32.1348 11.7178 32.2503 12.471 32.4814 13.1324C32.7126 13.7859 33.0552 14.3398 33.5095 14.7941C33.9717 15.2483 34.5415 15.595 35.219 15.8341C35.8964 16.0652 36.6853 16.1808 37.5859 16.1808C38.4785 16.1808 39.2635 16.0652 39.9409 15.8341C40.6262 15.595 41.1961 15.2483 41.6503 14.7941C42.1126 14.3398 42.4592 13.7859 42.6903 13.1324C42.9215 12.471 43.037 11.7178 43.037 10.8731V0.580505H46.8265V11.3273C46.8265 12.5546 46.6193 13.6704 46.2049 14.6745C45.7905 15.6787 45.1888 16.5394 44.3998 17.2566C43.6108 17.9739 42.6425 18.5278 41.4949 18.9183C40.3553 19.3088 39.0523 19.504 37.5859 19.504C36.1195 19.504 34.8125 19.3088 33.6649 18.9183C32.5253 18.5278 31.561 17.9739 30.772 17.2566C29.983 16.5394 29.3813 15.6787 28.9669 14.6745C28.5525 13.6704 28.3453 12.5546 28.3453 11.3273V0.580505Z" fill="white"/>
<path d="M57.3024 0.580505H67.1526C68.5872 0.580505 69.8304 0.73591 70.8824 1.04672C71.9343 1.35753 72.807 1.8078 73.5003 2.39755C74.1937 2.97932 74.7077 3.69259 75.0424 4.53735C75.3851 5.38211 75.5565 6.33447 75.5565 7.39441C75.5565 8.39059 75.3891 22.1642 75.0544 23.009C74.7197 23.8538 74.2056 24.587 73.5123 25.2086C72.8269 25.8222 71.9582 26.3044 70.9063 26.655C69.8543 26.9977 68.6111 27.1691 67.1766 27.1691L61.0919 27.1571V46.8074H57.3024V0.580505ZM67.2483 23.8817C67.9655 23.8817 68.5911 23.798 69.1251 23.6306C69.667 23.4553 70.1173 23.2122 70.4759 22.9014C70.8425 22.5826 71.1135 22.2001 71.2888 21.7538C71.4721 21.2995 71.5637 7.9443 71.5637 7.39441C71.5637 6.28665 71.2011 5.42595 70.4759 4.8123C69.7587 4.19068 68.6828 3.87987 67.2483 3.87987H61.0919V23.8817H67.2483Z" fill="#C79848"/>
<path d="M92.4677 0.580505H96.4843L105.522 19.2649H101.541L100.047 16.121H89.1325L87.686 19.2649H83.6933L92.4677 0.580505ZM98.5524 13.0009L94.5118 4.51344L90.5789 13.0009H98.5524Z" fill="white"/>
<path d="M71.5263 28.7351H75.3158V44.0963H86.1822V47.4195H71.5263V28.7351Z" fill="white"/>
<path d="M95.9846 28.7351H111.896V32.0584H99.7741V35.7881H110.509V38.9081H99.7741V44.1082H112.147V47.4195H95.9846V28.7351Z" fill="white"/>
<path d="M127.783 37.9279L120.598 28.7351H125.237L130.198 35.1665L135.182 28.7351H139.749L132.433 37.892L140 47.4195H135.35L130.03 40.7013L124.591 47.4195H120.013L127.783 37.9279Z" fill="white"/>
</svg>
