<svg width="252" height="252" viewBox="0 0 252 252" fill="none" xmlns="http://www.w3.org/2000/svg">
<path id="Exclude" fill-rule="evenodd" clip-rule="evenodd" d="M126 252C195.588 252 252 195.588 252 126C252 56.4121 195.588 0 126 0C56.4121 0 0 56.4121 0 126C0 195.588 56.4121 252 126 252ZM208.741 91.6817C214.032 86.0442 213.752 77.1843 208.114 71.8926C202.477 66.601 193.617 66.8813 188.325 72.5189L106.128 160.088L70.7469 123.498C65.3722 117.94 56.5091 117.791 50.9507 123.166C45.3924 128.541 45.2435 137.404 50.6183 142.962L93.296 187.098C100.444 194.49 112.322 194.402 119.36 186.904L208.741 91.6817Z" fill="#232436"/>
</svg>
